<svg width="255" height="38" viewBox="0 0 255 38" fill="none" xmlns="http://www.w3.org/2000/svg">
<g clip-path="url(#clip0_41_2484)">
<path d="M39.64 31.2255C39.64 33.1048 38.3534 34.6452 36.7253 34.6452H7.2023C5.61215 34.6452 4.2876 33.1048 4.2876 31.2255V5.15882C4.2876 3.27955 5.5742 1.73917 7.2023 1.73917H36.7253C38.3154 1.73917 39.64 3.27955 39.64 5.15882V31.2255Z" fill="#FFD100"/>
<path d="M17.9884 23.7872C17.7228 24.7251 17.571 25.064 17.1191 25.1393C16.7018 25.177 16.4017 24.9134 16.0602 24.3143L5.6121 7.44885H5.53621C5.72592 11.5805 5.95358 15.8628 6.40545 19.6555C7.08842 25.4782 7.50234 25.6288 9.58575 25.4029C10.5688 25.2899 11.2518 25.2523 11.2897 25.7794C11.3656 26.3442 10.6068 26.4161 10.1549 26.4914C9.5478 26.5667 8.14737 26.5667 6.37095 26.7926C4.89463 26.9809 3.26654 27.3198 2.58702 27.3917C2.28348 27.4293 1.8661 27.3917 1.83161 26.9775C1.79367 26.5256 2.1731 26.4127 3.34588 26.1149C4.70837 25.776 5.31545 25.4748 5.0878 22.8835C5.04985 22.6199 4.63248 11.5771 4.06679 6.69578C3.83913 4.89182 3.76325 4.89182 1.873 5.08009C0.434625 5.19305 0.169025 5.00478 0.0931393 4.59059C0.0551964 4.28936 0.320796 4.06343 0.962375 3.98813C1.41769 3.95047 3.7253 3.83751 4.86014 3.72455C6.3744 3.53628 7.24364 3.31036 7.7369 3.23505C8.15427 3.1974 8.4923 3.15974 9.0235 3.9847L17.9573 18.5978L22.8381 2.7832C23.2555 1.5064 23.7074 1.35578 24.3524 1.28047C25.2596 1.16751 26.9256 1.12986 27.8707 1.0169C28.7779 0.903937 29.9162 0.64036 30.3681 0.565052C30.8234 0.527399 31.427 0.452091 31.465 0.94159C31.5409 1.43109 31.1614 1.46874 29.9886 1.69124C28.0191 2.03013 27.9811 2.51963 28.3226 4.47078L30.782 20.1348C31.0855 22.4248 31.2373 22.952 33.0896 22.726C33.9588 22.6131 34.4142 22.726 34.4521 23.1402C34.528 23.6674 33.845 23.7427 33.4311 23.7769C32.7895 23.8522 30.5543 23.9652 29.0021 24.1535C26.9187 24.417 24.6491 24.8278 23.8178 24.9031C23.5142 24.9408 23.0624 24.9408 23.0244 24.5266C22.9485 23.9994 23.328 23.9241 24.5766 23.7016C26.5083 23.3251 26.4324 22.3871 26.1668 20.6585L23.935 4.6967H23.8592L17.9918 23.7769L17.9884 23.7872Z" fill="#002169"/>
<path d="M2.39393 27.4703C1.97656 27.4703 1.7489 27.282 1.71096 26.9808C1.63507 26.4537 2.20422 26.3065 3.30111 26.0429C4.62566 25.704 5.1948 25.4404 5.00509 22.8868C5.00509 22.8492 4.96714 22.5103 4.96714 21.723C4.81537 18.7175 4.47389 10.6801 3.98408 6.6991C3.83231 5.30933 3.71848 5.08341 2.96307 5.08341C2.69747 5.08341 2.31805 5.12106 1.86618 5.15872C1.56264 5.19637 1.29704 5.19637 1.11077 5.19637C0.351916 5.19637 0.0897659 5.04576 0.0138802 4.63156C-0.0240626 4.44329 0.0518231 4.29268 0.241537 4.17972C0.393309 4.06676 0.658908 3.99145 0.962451 3.95379C1.15217 3.91614 1.60748 3.91614 2.17317 3.87849C3.08035 3.80318 4.18069 3.72787 4.89816 3.65256C5.62252 3.56699 6.34343 3.44033 7.05745 3.27603C7.36099 3.20072 7.58865 3.16306 7.77836 3.16306C8.23368 3.12541 8.60966 3.08776 9.14086 3.95379L17.9988 18.4163L22.8451 2.7523C23.2625 1.43784 23.7523 1.28722 24.4353 1.21191C24.8906 1.17426 25.5701 1.09895 26.1772 1.09895C26.8222 1.0613 27.4638 1.02364 27.9191 0.98599C28.4641 0.907259 29.0091 0.80799 29.5472 0.68476C29.8887 0.609452 30.2302 0.534144 30.4164 0.534144C30.5682 0.534144 30.7579 0.49649 30.9097 0.49649C31.0615 0.49649 31.5547 0.49649 31.6272 0.948336C31.703 1.47549 31.2857 1.54737 30.2267 1.73564L30.075 1.7733C28.1433 2.11218 28.1433 2.5606 28.4848 4.47752L30.9442 20.1415C31.2098 22.1337 31.3616 22.6951 32.4964 22.6951C32.6861 22.6951 32.9138 22.6951 33.138 22.6575C33.3656 22.6198 33.5553 22.6198 33.7071 22.6198C34.0865 22.6198 34.5384 22.6575 34.6143 23.147C34.6902 23.746 33.9693 23.8213 33.5174 23.8966C33.2518 23.9343 32.7999 23.9719 32.1929 24.0096C31.2477 24.0849 30.0336 24.1602 29.0884 24.2732C27.8018 24.4238 26.4773 24.6497 25.4183 24.8003C24.7354 24.9133 24.2076 24.9886 23.9041 25.0262H23.6764C23.1832 25.0262 23.0348 24.7627 22.9934 24.5367C22.9176 23.9343 23.4108 23.8247 24.6215 23.6365C26.4393 23.2599 26.4014 22.435 26.1737 20.6687L23.98 4.89172L18.1506 23.8247C17.885 24.7627 17.7332 25.1769 17.2054 25.2145C16.7122 25.2898 16.4121 24.9509 16.0327 24.3519L5.61217 7.63702C5.80189 11.5051 5.9916 15.825 6.44347 19.6931C7.01261 24.5744 7.35064 25.4404 8.75108 25.4404C8.97874 25.4404 9.24434 25.4028 9.54443 25.4028C9.92386 25.3651 10.2274 25.3275 10.4516 25.3275C10.7931 25.3275 11.2829 25.3651 11.3208 25.8546C11.3588 26.1559 11.207 26.3441 10.9035 26.4947C10.6379 26.6077 10.3343 26.6453 10.1101 26.6453C9.88247 26.683 9.57892 26.683 9.165 26.7207C8.44409 26.7583 7.46102 26.8336 6.32619 26.9466C5.45695 27.0595 4.50838 27.2102 3.75297 27.3608C3.25972 27.4361 2.80785 27.5114 2.54225 27.549C2.50431 27.4737 2.42842 27.4737 2.39048 27.4737L2.39393 27.4703ZM2.92513 4.93279C3.87025 4.93279 3.94614 5.34699 4.09791 6.6991C4.59117 10.6801 4.9292 18.6799 5.08097 21.723C5.11892 22.4007 5.11892 22.8492 5.11892 22.8868C5.34657 25.591 4.70154 25.8546 3.30111 26.2312C2.09039 26.5324 1.78685 26.6454 1.82479 26.9808C1.86273 27.2067 2.0145 27.3197 2.31805 27.3197H2.46982C2.73542 27.282 3.19073 27.2067 3.68054 27.1314C4.43939 27.0185 5.38452 26.8302 6.25375 26.7172C7.42653 26.5666 8.40959 26.529 9.13051 26.4913C9.54788 26.4537 9.84797 26.4537 10.0756 26.416C10.3033 26.3784 10.6068 26.3407 10.8345 26.2654C11.1001 26.1524 11.176 26.0018 11.176 25.8135C11.138 25.6253 11.0621 25.437 10.4585 25.437C10.2309 25.437 9.92731 25.4747 9.55133 25.5123C9.24779 25.55 8.98219 25.55 8.72004 25.55C7.20577 25.55 6.82634 24.6874 6.26065 19.6897C5.80534 15.7839 5.57768 11.3511 5.39141 7.48298V7.40768L5.61907 7.37002L5.65701 7.40768L16.1051 24.2355C16.4845 24.838 16.7501 25.0605 17.0882 25.0228C17.4676 24.9852 17.5814 24.7216 17.8815 23.746L23.7868 4.59049L24.0145 4.55283V4.62814L26.2462 20.5899C26.5118 22.3939 26.5497 23.3318 24.5801 23.7084C23.2556 23.9343 23.0279 24.0096 23.0659 24.4204C23.0659 24.571 23.1418 24.7592 23.5591 24.7592H23.7868C24.0903 24.7216 24.6181 24.6463 25.3011 24.5333C26.36 24.345 27.6846 24.1568 28.9712 24.0062C29.9163 23.8932 31.1305 23.8179 32.0756 23.7426C32.6827 23.7049 33.1725 23.6673 33.4001 23.6296C33.9313 23.5543 34.4211 23.479 34.3452 23.0648C34.3073 22.8765 34.2314 22.6883 33.6278 22.6883C33.476 22.6883 33.2863 22.6883 33.0966 22.7259C32.831 22.7636 32.6033 22.7636 32.4136 22.7636C31.127 22.7636 30.9752 22.0858 30.6717 20.0594L28.2123 4.39537C27.9467 2.5161 27.9467 1.95472 30.0301 1.57818L30.1819 1.54053C31.2788 1.35226 31.5064 1.27695 31.4305 0.900413C31.3926 0.67449 31.2408 0.561529 30.8993 0.561529C30.7476 0.561529 30.5579 0.599183 30.444 0.599183C30.2543 0.636836 29.9508 0.67449 29.6093 0.749798C29.116 0.862759 28.5124 0.975721 27.9433 1.05103C27.4879 1.08868 26.8084 1.16399 26.2013 1.20164C25.5563 1.2393 24.9147 1.27695 24.4594 1.31461C23.8178 1.38991 23.4005 1.50287 22.9831 2.74203L18.0264 18.7415L17.9505 18.5909L8.94079 4.0291C8.44754 3.23837 8.14744 3.27945 7.73007 3.31368C7.54036 3.35133 7.3127 3.38899 7.00916 3.42664C6.47796 3.5396 5.79844 3.69022 4.85332 3.80318C4.17035 3.87849 3.03551 3.95379 2.12833 4.0291C1.55919 4.06676 1.10732 4.10441 0.91761 4.10441C0.614067 4.14206 0.424353 4.21737 0.272581 4.29268C0.158753 4.36799 0.12081 4.48095 0.12081 4.59391C0.158753 4.81983 0.234639 5.04576 1.02799 5.04576C1.2177 5.04576 1.4833 5.04576 1.78685 5.0081C2.2801 4.97045 2.65608 4.93279 2.92168 4.93279H2.92513Z" fill="#FFD100"/>
<path d="M43.0444 19.3577C43.0064 19.7343 42.9685 19.9978 42.4752 19.9225C42.1717 19.8849 41.944 19.8096 41.568 19.1729C40.2814 17.0335 38.9189 15.1918 35.135 14.7777C28.3605 14.0657 24.5765 19.5871 24.0833 24.2425C23.5521 29.3497 26.315 35.5489 32.5997 36.1856C36.4216 36.5621 38.4291 34.7205 40.4711 32.0916C40.547 31.9409 40.9644 31.4514 41.3783 31.4891C41.9854 31.5644 41.9475 31.8656 41.9475 32.1292L41.3059 35.21C41.23 35.6995 41.0782 36.0349 40.171 36.3738C39.4536 36.6751 36.5768 37.5 32.4135 37.0858C21.9309 35.9973 18.1056 28.446 18.5609 23.8248C19.0921 18.7553 24.7318 12.7443 35.5558 13.8329C37.4495 14.0212 38.167 14.2094 40.9299 14.9214C42.7477 15.4109 42.9374 15.7464 43.0133 16.763" fill="white"/>
<path d="M34.6798 37.4247C33.921 37.4247 33.1276 37.387 32.3343 37.3117C26.3531 36.7127 22.9486 34.0427 21.1687 31.9409C19.0853 29.5003 18.0264 26.4572 18.292 23.8282C18.8232 18.721 24.0455 13.5351 32.9379 13.5351C33.7692 13.5351 34.6419 13.5727 35.5111 13.6857C37.3669 13.8739 38.0464 14.0622 40.6575 14.6989L40.9231 14.7742C42.7789 15.2637 43.0824 15.6745 43.1549 16.8007L43.2687 19.3919C43.2308 19.7685 43.1928 20.2546 42.4753 20.1792C42.0959 20.1416 41.7924 19.991 41.3785 19.3166C40.0539 17.1396 38.7294 15.4109 35.0972 15.0344C34.7178 14.9967 34.3383 14.9591 33.9623 14.9591C29.6472 14.9591 24.9527 18.1904 24.3111 24.3109C23.7419 29.5687 26.7325 35.3914 32.5999 35.9938C32.9413 36.0315 33.2449 36.0315 33.545 36.0315C36.5356 36.0315 38.3154 34.4911 40.2816 31.9752C40.4713 31.7116 40.8507 31.3008 41.3026 31.3008H41.3785C42.2097 31.3761 42.1718 31.9375 42.1339 32.2011L41.4923 35.2818C41.3785 35.8467 41.2267 36.2198 40.2436 36.634C39.5261 36.8599 37.4807 37.4247 34.6798 37.4247Z" fill="#F4C030"/>
<path d="M34.6831 37.5C33.9242 37.5 33.1309 37.4624 32.3375 37.3871C26.3184 36.788 22.9139 34.118 21.0961 31.9786C19.0127 29.5379 17.9158 26.4572 18.2193 23.7906C18.7505 18.6457 24.0108 13.4221 32.9446 13.4221C33.7759 13.4221 34.6486 13.4598 35.5178 13.5727C37.3736 13.761 38.0531 13.9493 40.6642 14.586L40.9298 14.6613C42.8235 15.1508 43.1616 15.5992 43.2374 16.763L43.3513 19.3543V19.392C43.3133 19.7685 43.2754 20.3299 42.4441 20.2169C42.0267 20.1793 41.7266 20.0287 41.3093 19.3167C39.9847 17.1362 38.6981 15.4486 35.1004 15.072C34.721 15.0344 34.3416 14.9967 33.9656 14.9967C29.6884 14.9967 25.0318 18.1905 24.3902 24.2733C23.859 29.4934 26.7737 35.2784 32.6031 35.8809C32.9446 35.9186 33.2481 35.9186 33.5482 35.9186C36.5009 35.9186 38.2807 34.3782 40.2089 31.8999C40.3986 31.6363 40.816 31.1879 41.3058 31.1879H41.3817C42.2889 31.2632 42.2509 31.8999 42.213 32.1634L41.5714 35.2819C41.4576 35.8467 41.3058 36.2574 40.2469 36.6716C39.5639 36.9352 37.4839 37.4966 34.6831 37.4966V37.5Z" fill="#FFD100"/>
<path d="M43.0444 19.3577C43.0064 19.7343 42.9685 19.9978 42.4752 19.9225C42.1717 19.8849 41.944 19.8096 41.568 19.1729C40.2814 17.0335 38.9189 15.1918 35.135 14.7777C28.3605 14.0657 24.5765 19.5871 24.0833 24.2425C23.5521 29.3497 26.315 35.5489 32.5997 36.1856C36.4216 36.5621 38.4291 34.7205 40.4711 32.0916C40.547 31.9409 40.9644 31.4514 41.3783 31.4891C41.9854 31.5644 41.9475 31.8656 41.9475 32.1292L41.3059 35.21C41.23 35.6995 41.0782 36.0349 40.171 36.3738C39.4536 36.6751 36.5768 37.5 32.4135 37.0858C21.9309 35.9973 18.1056 28.446 18.5609 23.8248C19.0921 18.7553 24.7318 12.7443 35.5558 13.8329C37.4495 14.0212 38.167 14.2094 40.9299 14.9214C42.7477 15.4109 42.9374 15.7464 43.0133 16.763" fill="white"/>
<path d="M104.55 33.7997C104.398 33.4984 104.019 32.8617 103.149 32.8617C101.939 32.8617 101.521 33.875 101.521 34.628C101.521 35.4907 102.052 36.3943 103.149 36.3943C103.87 36.3943 104.322 35.9802 104.55 35.4941H105.609C105.229 36.5826 104.246 37.2604 103.149 37.2604C101.521 37.2604 100.614 35.9459 100.614 34.6691C100.614 33.317 101.597 32.0779 103.187 32.0779C104.588 32.0779 105.457 33.1287 105.647 33.8442H104.55V33.8065V33.7997Z" fill="#FFD100"/>
<path d="M108.903 37.257C107.237 37.257 106.216 35.8672 106.216 34.628C106.216 33.2759 107.351 32.0744 108.903 32.0744C110.455 32.0744 111.59 33.2383 111.59 34.6657C111.59 35.8295 110.607 37.257 108.903 37.257ZM108.903 32.8994C107.844 32.8994 107.161 33.762 107.161 34.6657C107.161 35.5694 107.882 36.432 108.903 36.432C109.924 36.432 110.645 35.607 110.645 34.6657C110.679 33.7244 109.934 32.9336 108.986 32.9028C108.958 32.9028 108.93 32.9028 108.903 32.9028V32.8994Z" fill="#FFD100"/>
<path d="M119.158 37.1063V34.3645C119.158 33.9503 119.12 32.8994 117.985 32.8994C116.774 32.8994 116.812 33.9503 116.812 34.3645V37.1063H115.867V34.3645C115.867 33.9503 115.867 33.6867 115.677 33.3512C115.45 33.0123 115.108 32.8994 114.77 32.8994C113.522 32.8994 113.522 33.9879 113.522 34.3645V37.1063H112.576V32.1463H113.446V32.6735C113.635 32.4852 113.939 31.9957 114.884 31.9957C115.491 31.9957 116.171 32.2969 116.436 32.8207C116.588 32.5571 116.967 31.9957 118.064 31.9957C118.896 31.9957 119.503 32.3346 119.806 32.896C119.996 33.2348 120.072 33.608 120.072 34.0975V37.0653H119.165V37.1029L119.158 37.1063Z" fill="#FFD100"/>
<path d="M127.902 37.1063V34.3645C127.902 33.9503 127.864 32.8994 126.729 32.8994C125.518 32.8994 125.556 33.9503 125.556 34.3645V37.1063H124.611V34.3645C124.611 33.9503 124.611 33.6867 124.383 33.3512C124.156 33.0123 123.814 32.8994 123.476 32.8994C122.228 32.8994 122.228 33.9879 122.228 34.3645V37.1063H121.282V32.1463H122.152V32.6735C122.341 32.4852 122.645 31.9957 123.59 31.9957C124.197 31.9957 124.877 32.2969 125.142 32.8207C125.294 32.5571 125.673 31.9957 126.77 31.9957C127.602 31.9957 128.209 32.3346 128.512 32.896C128.702 33.2348 128.778 33.608 128.778 34.0975V37.0653H127.909V37.1029L127.902 37.1063Z" fill="#FFD100"/>
<path d="M132.331 36.3909C133.014 36.3909 133.541 35.9767 133.769 35.566H134.714C134.221 36.8428 133.086 37.257 132.331 37.257C130.93 37.257 129.795 36.0555 129.795 34.6657C129.795 33.2006 130.93 32.0744 132.331 32.0744C133.731 32.0744 134.866 33.163 134.866 34.5904C134.866 34.741 134.828 35.0046 134.828 35.0799H130.713C130.951 35.9939 131.734 36.3944 132.331 36.3944V36.3909ZM133.921 34.3234C133.883 33.608 133.203 32.8583 132.331 32.8583C131.458 32.8583 130.778 33.5737 130.703 34.3234H133.921Z" fill="#FFD100"/>
<path d="M135.773 37.1064V32.1463H136.642V32.5982C137.022 32.0334 137.663 32.0334 137.929 32.0334V32.9713C137.777 32.9713 137.474 33.0466 137.246 33.1595C136.943 33.3102 136.715 33.6867 136.715 34.3987V37.1029H135.77L135.773 37.1064Z" fill="#FFD100"/>
<path d="M142.324 33.7997C142.172 33.4984 141.792 32.8617 140.923 32.8617C139.712 32.8617 139.295 33.875 139.295 34.628C139.295 35.4907 139.864 36.3943 140.923 36.3943C141.606 36.3943 142.096 35.9802 142.324 35.4941H143.345C142.965 36.5826 141.982 37.2604 140.885 37.2604C139.257 37.2604 138.312 35.9459 138.312 34.6691C138.312 33.317 139.295 32.0779 140.885 32.0779C142.286 32.0779 143.155 33.1287 143.345 33.8442H142.324V33.8065V33.7997Z" fill="#FFD100"/>
<path d="M145.159 30.493H144.214V31.5815H145.159V30.493ZM145.159 32.1463H144.214V37.1064H145.159V32.1463Z" fill="#FFD100"/>
<path d="M150.461 36.3533C150.081 36.9557 149.44 37.2535 148.757 37.2535C147.09 37.2535 146.107 35.9767 146.107 34.6623C146.107 33.4608 146.977 32.0334 148.757 32.0334C149.44 32.0334 150.081 32.3346 150.461 32.8583V32.1429H151.406V37.1029H150.461V36.3533ZM148.757 32.896C147.622 32.896 147.053 33.8715 147.053 34.6623C147.053 35.5625 147.77 36.3909 148.757 36.3909C149.715 36.3909 150.495 35.6242 150.498 34.6725C150.498 34.6725 150.498 34.6657 150.498 34.6623C150.498 33.6114 149.74 32.896 148.757 32.896Z" fill="#FFD100"/>
<path d="M153.562 37.1064H152.616V30.4964H153.562V37.1064Z" fill="#FFD100"/>
<path d="M155.683 30.493H154.738V31.5815H155.683V30.493ZM155.683 32.1463H154.738V37.1064H155.683V32.1463Z" fill="#FFD100"/>
<path d="M158.863 33.4984C158.825 33.0842 158.56 32.896 158.222 32.896C157.884 32.896 157.653 33.1219 157.653 33.4231C157.653 33.8373 158.032 33.9503 158.408 34.0632C158.787 34.1762 159.922 34.4774 159.922 35.6789C159.922 36.5415 159.315 37.257 158.256 37.257C157.615 37.257 156.476 36.8804 156.476 35.4907H157.421C157.459 36.0555 157.763 36.3909 158.253 36.3909C158.67 36.3909 158.97 36.1274 158.97 35.7132C158.97 35.2613 158.591 35.1107 158.101 34.9601C157.57 34.7718 156.701 34.5082 156.701 33.4574C156.701 32.7454 157.308 32.0299 158.253 32.0299C158.818 32.0299 159.767 32.3688 159.767 33.4574H158.86V33.495L158.863 33.4984Z" fill="#FFD100"/>
<path d="M161.892 37.1064H160.947V33.0124H160.264V32.1497H160.947V30.4964H161.892V32.1497H162.723V33.0124H161.892V37.1064Z" fill="#FFD100"/>
<path d="M164.275 30.493H163.33V31.5815H164.275V30.493ZM164.275 32.1463H163.33V37.1064H164.275V32.1463Z" fill="#FFD100"/>
<path d="M172.036 36.3533C171.695 36.9557 171.015 37.2535 170.332 37.2535C168.666 37.2535 167.683 35.9767 167.683 34.6623C167.683 33.4608 168.552 32.0334 170.332 32.0334C171.015 32.0334 171.657 32.3346 172.036 32.8583V32.1429H172.981V37.1029H172.036V36.3533ZM170.332 32.896C169.197 32.896 168.628 33.8715 168.628 34.6623C168.628 35.5625 169.346 36.3909 170.332 36.3909C171.291 36.3909 172.071 35.6242 172.074 34.6725C172.074 34.6725 172.074 34.6657 172.074 34.6623C172.074 33.6114 171.315 32.896 170.332 32.896Z" fill="#FFD100"/>
<path d="M176.158 33.4984C176.12 33.0842 175.855 32.896 175.517 32.896C175.179 32.896 174.947 33.1219 174.947 33.4231C174.947 33.8373 175.327 33.9503 175.703 34.0632C176.082 34.1762 177.217 34.4774 177.217 35.6789C177.217 36.5415 176.61 37.257 175.551 37.257C174.91 37.257 173.771 36.8804 173.771 35.4907H174.716C174.754 36.0555 175.02 36.3909 175.548 36.3909C175.965 36.3909 176.265 36.1274 176.265 35.7132C176.265 35.2613 175.886 35.1107 175.396 34.9601C174.865 34.7718 173.995 34.5082 173.995 33.4574C173.995 32.7454 174.603 32.0299 175.548 32.0299C176.113 32.0299 177.062 32.3688 177.062 33.4574H176.155V33.495L176.158 33.4984Z" fill="#FFD100"/>
<path d="M179.98 33.4984C179.942 33.0842 179.677 32.896 179.339 32.896C179.001 32.896 178.77 33.1219 178.77 33.4231C178.77 33.8373 179.111 33.9503 179.525 34.0632C179.904 34.1762 181.039 34.4774 181.039 35.6789C181.039 36.5415 180.432 37.257 179.373 37.257C178.732 37.257 177.593 36.8804 177.593 35.4907H178.538C178.576 36.0555 178.88 36.3909 179.37 36.3909C179.787 36.3909 180.087 36.1274 180.087 35.7132C180.087 35.2613 179.708 35.1107 179.218 34.9601C178.687 34.7718 177.817 34.5082 177.817 33.4574C177.817 32.7454 178.425 32.0299 179.37 32.0299C179.935 32.0299 180.884 32.3688 180.884 33.4574H179.977V33.495L179.98 33.4984Z" fill="#FFD100"/>
<path d="M184.261 37.257C182.595 37.257 181.574 35.8672 181.574 34.628C181.574 33.2759 182.709 32.0744 184.261 32.0744C185.813 32.0744 186.948 33.2383 186.948 34.6657C186.948 35.8295 185.927 37.257 184.261 37.257ZM184.261 32.8994C183.202 32.8994 182.519 33.762 182.519 34.6657C182.519 35.5694 183.236 36.432 184.261 36.432C185.285 36.432 186.003 35.607 186.003 34.6657C186.003 33.7244 185.285 32.8994 184.261 32.8994Z" fill="#FFD100"/>
<path d="M191.601 33.7997C191.449 33.4984 191.07 32.8617 190.201 32.8617C188.99 32.8617 188.572 33.875 188.572 34.628C188.572 35.4907 189.142 36.3943 190.201 36.3943C190.918 36.3943 191.373 35.9802 191.601 35.4941H192.66C192.281 36.5826 191.297 37.2604 190.201 37.2604C188.572 37.2604 187.665 35.9459 187.665 34.6691C187.665 33.317 188.648 32.0779 190.239 32.0779C191.639 32.0779 192.508 33.1287 192.698 33.8442H191.601V33.8065V33.7997Z" fill="#FFD100"/>
<path d="M194.478 30.493H193.532V31.5815H194.478V30.493ZM194.478 32.1463H193.532V37.1064H194.478V32.1463Z" fill="#FFD100"/>
<path d="M199.742 36.3533C199.4 36.9557 198.72 37.2535 198.038 37.2535C196.371 37.2535 195.388 35.9767 195.388 34.6623C195.388 33.4608 196.258 32.0334 198.038 32.0334C198.72 32.0334 199.362 32.3346 199.742 32.8583V32.1429H200.687V37.1029H199.742V36.3533ZM198.038 32.896C196.903 32.896 196.334 33.8715 196.334 34.6623C196.334 35.5625 197.051 36.3909 198.038 36.3909C198.996 36.3909 199.776 35.6242 199.779 34.6725C199.779 34.6725 199.779 34.6657 199.779 34.6623C199.779 33.6114 199.021 32.896 198.038 32.896Z" fill="#FFD100"/>
<path d="M202.994 37.1064H202.049V33.0124H201.366V32.1497H202.049V30.4964H202.994V32.1497H203.825V33.0124H202.994V37.1064Z" fill="#FFD100"/>
<path d="M205.378 30.493H204.433V31.5815H205.378V30.493ZM205.378 32.1463H204.433V37.1064H205.378V32.1463Z" fill="#FFD100"/>
<path d="M63.8233 24.6361C63.5197 25.3139 63.4059 25.5364 63.0679 25.5364C62.7643 25.5364 62.5746 25.3104 62.3504 24.8244L56.1071 11.4881H56.0312C55.8036 14.5688 55.5759 17.7591 55.5759 20.614C55.5759 24.9716 55.8415 25.1222 57.4317 25.1598C58.1491 25.1598 58.6424 25.1975 58.6424 25.574C58.6424 25.9882 58.0732 25.9882 57.7352 25.9882C57.2799 25.9882 56.2589 25.8752 54.8964 25.8752C53.7995 25.8752 52.5508 25.9882 52.0576 25.9882C51.8299 25.9882 51.5264 25.9506 51.5264 25.6117C51.5264 25.2728 51.8299 25.2351 52.7371 25.1222C53.796 24.9716 54.2514 24.8209 54.3272 22.8698C54.3272 22.6815 54.9688 14.4559 54.9688 10.8137C54.9688 9.46161 54.8929 9.46161 53.4925 9.42396C52.4335 9.38631 52.2438 9.23569 52.2438 8.93446C52.2438 8.70854 52.4715 8.55792 52.9233 8.55792C53.2648 8.55792 55.0033 8.67088 55.876 8.67088C57.0108 8.67088 57.6938 8.55792 58.0698 8.55792C58.3733 8.55792 58.6389 8.55792 58.939 9.23569L64.2752 20.8433L69.3078 9.53692C69.7251 8.63665 70.0632 8.56134 70.5564 8.56134C71.2394 8.56134 72.4881 8.67431 73.1676 8.67431C73.8471 8.67431 74.7198 8.56134 75.0613 8.56134C75.4028 8.56134 75.8581 8.56134 75.8581 8.93788C75.8581 9.31442 75.5545 9.31442 74.6853 9.35208C73.209 9.42738 73.1331 9.80392 73.209 11.269L73.6643 23.1026C73.7022 24.8312 73.7402 25.2078 75.1406 25.2078C75.8201 25.2078 76.1237 25.3207 76.1237 25.6219C76.1237 25.9985 75.6304 25.9985 75.2924 25.9985C74.7991 25.9985 73.1331 25.8855 71.9603 25.8855C70.3702 25.8855 68.6662 25.9985 68.0625 25.9985C67.8349 25.9985 67.4934 25.9608 67.4934 25.6219C67.4934 25.2454 67.7969 25.2078 68.7421 25.1324C70.1804 25.0195 70.2184 24.3451 70.1804 23.0273L69.9148 11.0088H69.839L63.8198 24.6429L63.8233 24.6361Z" fill="#002169"/>
<path d="M83.0879 26.0601C79.4902 26.0601 77.3723 23.5818 77.3723 21.2883C77.3723 18.9949 79.5282 16.5166 82.9741 16.5166C85.6232 16.5166 88.5379 18.057 88.5379 21.1377C88.5379 23.8043 86.2682 26.0601 83.0879 26.0601ZM83.012 25.6083C84.716 25.6083 86.1544 23.729 86.1544 21.326C86.1544 19.9362 85.3231 17.0061 82.7843 17.0061C81.1183 17.0061 79.7558 18.4711 79.7558 20.9495C79.7558 23.4278 81.1563 25.6083 83.012 25.6083Z" fill="#002169"/>
<path d="M100.235 24.1466C100.235 24.7491 100.386 24.862 100.576 24.862C100.728 24.862 101.335 24.3349 101.521 24.3349C101.673 24.3349 101.673 24.5231 101.673 24.5984C101.673 25.1256 101.635 25.1632 100.121 25.6117C99.8931 25.687 98.7203 26.1388 98.5306 26.1388C98.3409 26.1388 98.1891 26.1012 98.1512 25.3515C98.1512 25.2385 98.1132 25.0503 97.9615 25.0503C97.8856 25.0503 97.7338 25.1256 97.62 25.2009C97.0129 25.6527 96.2195 26.1388 94.895 26.1388C92.2838 26.1388 90.0142 24.2972 90.0142 21.593C90.0142 18.4369 93.0048 16.5987 95.6159 16.5987C96.3748 16.5987 97.2061 16.787 97.5855 16.9376C97.6614 16.9752 97.8131 17.0129 97.8511 17.0129C97.927 17.0129 98.0029 16.9376 98.0029 16.8623V14.7229C98.0029 14.1204 97.889 13.9356 97.1336 13.8979C97.0198 13.8603 96.7163 13.8226 96.7163 13.6343C96.7163 13.4084 97.0577 13.3331 97.1336 13.2954C97.6269 13.2201 98.5341 13.0695 99.7827 12.5081C99.8207 12.4705 99.9345 12.4328 100.048 12.4328C100.314 12.4328 100.314 12.7341 100.314 12.8094C100.314 13.1106 100.238 14.4627 100.238 14.7639V24.1534L100.235 24.1466ZM95.7297 16.9342C94.1396 16.9342 92.4356 18.2486 92.4356 20.9152C92.4356 23.2052 93.836 24.9339 96.1437 24.9339C98.0753 24.9339 98.0753 24.1466 98.0753 23.7701V19.6761C98.0753 18.7758 98.0753 16.9342 95.7297 16.9342Z" fill="#002169"/>
<path d="M105.76 19.8267C105.381 19.8267 105.153 19.8643 105.153 20.9152C105.153 23.2053 106.857 24.9339 109.241 24.9339C110.262 24.9339 111.21 24.595 111.776 24.1089C112.118 23.8077 112.156 23.7701 112.269 23.7701C112.421 23.7701 112.459 23.883 112.459 23.9583C112.459 24.2596 110.831 26.0601 107.916 26.0601C104.85 26.0601 102.542 24.2938 102.542 21.4389C102.542 18.4335 105.115 16.4789 108.258 16.4789C111.738 16.4789 112.497 18.7313 112.497 19.4467C112.497 19.8233 112.231 19.8233 111.852 19.8233H105.757L105.76 19.8267ZM108.599 19.1866C109.582 19.1866 110.189 18.7347 110.189 18.211C110.189 17.0095 108.599 16.9718 108.258 16.9718C106.174 16.9718 105.457 18.6252 105.457 18.9641C105.457 19.19 105.533 19.19 106.064 19.19H108.599V19.1866Z" fill="#002169"/>
<path d="M122.072 20.1998C122.072 19.2619 122.072 17.7215 119.803 17.7215C119.12 17.7215 118.402 17.9474 117.871 18.3992C117.53 18.7005 117.416 19.0394 117.416 19.5254V23.8454C117.416 24.9715 117.416 25.2351 118.399 25.3481C118.968 25.4234 119.082 25.4987 119.082 25.687C119.082 25.9505 118.854 25.9505 118.702 25.9505C118.361 25.9505 116.733 25.8752 116.281 25.8752C115.939 25.8752 114.273 25.9505 113.897 25.9505C113.708 25.9505 113.48 25.9505 113.48 25.687C113.48 25.4987 113.67 25.4234 114.163 25.3481C115.146 25.2351 115.146 25.0092 115.146 23.8454V19.9396C115.146 18.9641 115.146 18.5499 114.463 18.4746C114.084 18.4369 113.856 18.4369 113.856 18.1733C113.856 18.0604 113.932 17.9851 114.197 17.9097C114.349 17.8721 115.826 17.3073 116.543 16.5953C116.695 16.4447 116.884 16.2188 117.036 16.2188C117.226 16.2188 117.302 16.407 117.302 16.5953V17.6085C117.302 17.9474 117.302 18.0227 117.378 18.0227C117.53 18.0227 117.643 17.9474 117.719 17.9097C119.12 16.7459 119.837 16.4823 121.127 16.4823C122.641 16.4823 124.307 17.2354 124.307 19.1112V23.8454C124.307 24.9715 124.307 25.2351 125.291 25.3481C125.86 25.4234 125.974 25.4987 125.974 25.687C125.974 25.9505 125.746 25.9505 125.594 25.9505C125.253 25.9505 123.549 25.8752 123.211 25.8752C122.873 25.8752 121.165 25.9505 120.789 25.9505C120.637 25.9505 120.41 25.9505 120.41 25.687C120.41 25.4987 120.561 25.4234 121.093 25.3481C122.076 25.2351 122.076 25.0092 122.076 23.8454V20.2032L122.072 20.1998Z" fill="#002169"/>
<path d="M132.255 18.7005C132.255 17.9851 132.179 17.0095 131.082 17.0095C129.758 17.0095 129.226 18.2486 129.037 18.7381C128.657 19.6384 127.333 19.7514 127.295 19.7514C127.029 19.7514 126.802 19.6008 126.802 19.3372C126.802 18.6594 128.278 16.5576 131.758 16.5576C133.918 16.5576 134.445 17.1978 134.445 18.0604V23.6571C134.445 24.2972 134.521 24.7833 135.166 24.7833C135.432 24.7833 135.659 24.708 135.849 24.595C136.026 24.4695 136.153 24.4068 136.229 24.4068C136.38 24.4068 136.456 24.5197 136.456 24.595C136.456 25.0845 135.056 26.0601 134.035 26.0601C133.128 26.0601 132.71 25.4576 132.407 24.9716C132.179 24.595 132.141 24.595 132.065 24.595C132.027 24.595 131.913 24.6703 131.913 24.6703C130.93 25.3481 129.682 26.0978 128.657 26.0978C126.953 26.0978 126.839 24.708 126.839 24.3691C126.839 22.8664 128.05 22.0038 131.61 20.7646C132.179 20.5763 132.179 20.3881 132.179 20.0115V18.6971H132.255V18.7005ZM132.255 21.4424C132.255 21.2541 132.103 21.2165 131.989 21.2165C131.686 21.2165 131.082 21.48 130.703 21.6306C129.264 22.2331 129.264 23.0204 129.264 23.4346C129.264 24.4102 129.796 24.7867 130.285 24.7867C131.306 24.7867 132.217 24.0336 132.217 22.6439V21.4424H132.255Z" fill="#002169"/>
<path d="M155.721 11.9399C155.721 12.2035 155.721 12.4294 155.341 12.4294C155.114 12.4294 154.924 12.3918 154.586 11.9399C153.451 10.4372 152.278 9.12274 149.364 9.12274C144.179 9.12274 141.792 13.5556 141.792 17.1225C141.792 21.0282 144.366 25.4611 149.136 25.4611C152.051 25.4611 153.413 23.9207 154.738 21.7813C154.814 21.6683 155.041 21.2541 155.379 21.2541C155.835 21.2541 155.835 21.5177 155.835 21.706L155.645 24.0336C155.607 24.4102 155.569 24.6738 154.886 25.0092C154.393 25.2728 152.275 26.1354 149.095 26.1354C141.109 26.1354 137.625 20.727 137.625 17.1943C137.625 13.3263 141.409 8.36624 149.66 8.36624C151.099 8.36624 151.668 8.44155 153.786 8.74278C155.224 8.9687 155.376 9.23228 155.49 9.98193L155.717 11.9365L155.721 11.9399Z" fill="#FFD100"/>
<path d="M163.292 26.0601C159.698 26.0601 157.577 23.5818 157.577 21.2883C157.577 18.9949 159.736 16.5166 163.178 16.5166C165.828 16.5166 168.742 18.057 168.742 21.1377C168.742 23.8043 166.51 26.0601 163.292 26.0601ZM163.216 25.6083C164.92 25.6083 166.359 23.729 166.359 21.326C166.359 19.9362 165.527 17.0061 162.989 17.0061C161.323 17.0061 159.96 18.4711 159.96 20.9495C159.96 23.4278 161.399 25.6083 163.216 25.6083Z" fill="#FFD100"/>
<path d="M178.317 20.1998C178.317 19.2619 178.317 17.7215 176.048 17.7215C175.365 17.7215 174.647 17.9474 174.116 18.3992C173.775 18.7005 173.661 19.0394 173.661 19.5254V23.8454C173.661 24.9715 173.661 25.2351 174.644 25.3481C175.213 25.4234 175.327 25.4987 175.327 25.687C175.327 25.9505 175.099 25.9505 174.947 25.9505C174.606 25.9505 172.94 25.8752 172.526 25.8752C172.184 25.8752 170.518 25.9505 170.142 25.9505C169.953 25.9505 169.725 25.9505 169.725 25.687C169.725 25.4987 169.915 25.4234 170.408 25.3481C171.391 25.2351 171.391 25.0092 171.391 23.8454V19.9396C171.391 18.9641 171.391 18.5499 170.708 18.4746C170.329 18.4369 170.101 18.4369 170.101 18.1733C170.101 18.0604 170.177 17.9851 170.443 17.9097C170.594 17.8721 172.071 17.3073 172.788 16.5953C172.94 16.4447 173.13 16.2188 173.281 16.2188C173.509 16.2188 173.547 16.407 173.547 16.5953V17.6085C173.547 17.9474 173.547 18.0227 173.623 18.0227C173.775 18.0227 173.888 17.9474 173.926 17.9097C175.327 16.7459 176.044 16.4823 177.334 16.4823C178.849 16.4823 180.515 17.2354 180.515 19.1112V23.8454C180.515 24.9715 180.515 25.2351 181.498 25.3481C182.067 25.4234 182.181 25.4987 182.181 25.687C182.181 25.9505 181.953 25.9505 181.801 25.9505C181.46 25.9505 179.759 25.8752 179.38 25.8752C179.038 25.8752 177.334 25.9505 176.958 25.9505C176.807 25.9505 176.579 25.9505 176.579 25.687C176.579 25.4987 176.731 25.4234 177.262 25.3481C178.245 25.2351 178.245 25.0092 178.245 23.8454V20.2032H178.321L178.317 20.1998Z" fill="#FFD100"/>
<path d="M183.35 23.2053C183.35 23.1299 183.388 22.8287 183.654 22.8287C183.919 22.8287 184.033 23.017 184.147 23.3935C184.261 23.7701 184.94 25.5329 186.796 25.5329C187.817 25.5329 189.028 24.9305 189.028 23.8796C189.028 22.8287 187.969 22.3392 186.379 21.7744C185.016 21.3226 183.388 20.7235 183.388 19.2584C183.388 18.0946 184.409 16.4789 187.514 16.4789C187.855 16.4789 189.559 16.7048 189.749 16.7048C190.318 16.7801 190.318 17.0061 190.318 17.3073L190.242 18.5088C190.242 18.5841 190.204 18.8477 189.976 18.8477C189.825 18.8477 189.711 18.81 189.559 18.4335C189.407 18.0569 188.804 16.9684 187.251 16.9684C186.268 16.9684 185.396 17.4579 185.396 18.2076C185.396 19.0325 185.889 19.2208 188.234 20.0492C189.028 20.3504 190.959 21.0624 190.959 22.7911C190.959 24.3314 189.559 26.0601 186.493 26.0601C185.092 26.0601 183.654 25.5329 183.578 25.4953C183.312 25.3823 183.312 25.1941 183.312 24.708L183.35 23.2053Z" fill="#FFD100"/>
<path d="M200.345 18.8888C200.345 17.7626 200.345 17.5366 199.362 17.386C198.793 17.3107 198.679 17.2354 198.679 17.0471C198.679 16.8212 198.907 16.8212 199.058 16.8212C199.438 16.8212 200.269 16.8965 201.366 16.8965C201.632 16.8965 201.821 16.8589 201.935 16.8589C202.087 16.8212 202.163 16.8212 202.277 16.8212C202.618 16.8212 202.618 17.0095 202.618 17.4237V23.9583C202.618 24.8209 202.846 24.8586 203.677 24.8962C203.829 24.8962 204.056 24.9339 204.056 25.0845C204.056 25.2351 203.829 25.3104 203.715 25.3481L201.066 25.9882C200.838 26.0635 200.648 26.0635 200.611 26.0635C200.269 26.0635 200.269 25.7999 200.269 25.687V24.8997C200.269 24.7867 200.231 24.6737 200.117 24.6737C200.041 24.6737 199.928 24.7114 199.738 24.8244C198.451 25.687 197.392 25.9882 196.52 25.9882C195.837 25.9882 193.453 25.7623 193.453 22.9074V18.8134C193.453 17.6496 193.453 17.4237 192.47 17.3107C191.901 17.2354 191.787 17.1601 191.787 16.9718C191.787 16.7459 192.015 16.7459 192.167 16.7459C192.47 16.7459 193.377 16.8212 193.946 16.8212C194.288 16.8212 194.588 16.7836 194.854 16.7836C195.119 16.7459 195.309 16.7459 195.423 16.7459C195.612 16.7459 195.764 16.8212 195.764 17.0471C195.764 17.1978 195.726 17.3484 195.726 17.499V22.9828C195.726 23.8077 196.106 24.7867 198.034 24.7867C198.489 24.7867 200.379 24.7867 200.379 23.3216V18.8888H200.341H200.345Z" fill="#FFD100"/>
<path d="M206.099 15.2432C206.099 14.6407 206.099 13.9287 205.267 13.8911C204.85 13.8534 204.736 13.8534 204.736 13.6275C204.736 13.4392 204.812 13.4392 205.495 13.2886C206.102 13.1757 207.047 12.8744 207.503 12.6862C208.072 12.4602 208.11 12.4226 208.22 12.4226C208.486 12.4226 208.486 12.6485 208.486 12.8368C208.486 13.1003 208.41 14.3772 208.41 14.6031V23.8796C208.41 25.0058 208.41 25.2317 209.393 25.3823C209.962 25.4576 210.076 25.5329 210.076 25.7212C210.076 25.9848 209.848 25.9848 209.696 25.9848C209.089 25.9848 208.599 25.9095 207.275 25.9095C205.761 25.9095 205.457 25.9848 205.005 25.9848C204.74 25.9848 204.512 25.9848 204.512 25.7212C204.512 25.5329 204.702 25.4576 205.195 25.3823C206.178 25.2694 206.178 25.0434 206.178 23.9173V15.2398H206.102L206.099 15.2432Z" fill="#FFD100"/>
<path d="M214.049 19.8267C213.67 19.8267 213.442 19.8643 213.442 20.9152C213.442 23.2053 215.146 24.9339 217.53 24.9339C218.551 24.9339 219.499 24.595 220.065 24.1089C220.406 23.8077 220.444 23.7701 220.558 23.7701C220.71 23.7701 220.786 23.883 220.786 23.9583C220.786 24.2596 219.158 26.0601 216.243 26.0601C213.176 26.0601 210.869 24.2938 210.869 21.4389C210.869 18.4335 213.442 16.4789 216.584 16.4789C220.065 16.4789 220.824 18.7313 220.824 19.4467C220.824 19.8233 220.558 19.8233 220.179 19.8233H214.046L214.049 19.8267ZM216.888 19.1866C217.871 19.1866 218.478 18.7347 218.478 18.211C218.478 17.0095 216.888 16.9718 216.547 16.9718C214.463 16.9718 213.746 18.6252 213.746 18.9641C213.746 19.19 213.822 19.19 214.353 19.19H216.888V19.1866Z" fill="#FFD100"/>
<path d="M230.399 20.1998C230.399 19.2619 230.399 17.7215 228.13 17.7215C227.447 17.7215 226.729 17.9474 226.198 18.3992C225.856 18.7005 225.743 19.0394 225.743 19.5254V23.8454C225.743 24.9715 225.743 25.2351 226.726 25.3481C227.295 25.4234 227.409 25.4987 227.409 25.687C227.409 25.9505 227.181 25.9505 227.029 25.9505C226.688 25.9505 225.022 25.8752 224.608 25.8752C224.266 25.8752 222.6 25.9505 222.224 25.9505C222.035 25.9505 221.807 25.9505 221.807 25.687C221.807 25.4987 221.997 25.4234 222.49 25.3481C223.473 25.2351 223.473 25.0092 223.473 23.8454V19.9396C223.473 18.9641 223.473 18.5499 222.79 18.4746C222.411 18.4369 222.183 18.4369 222.183 18.1733C222.183 18.0604 222.259 17.9851 222.524 17.9097C222.676 17.8721 224.152 17.3073 224.87 16.5953C225.022 16.4447 225.211 16.2188 225.401 16.2188C225.591 16.2188 225.667 16.407 225.667 16.5953V17.6085C225.667 17.9474 225.667 18.0227 225.743 18.0227C225.894 18.0227 226.008 17.9474 226.084 17.9097C227.485 16.7459 228.205 16.4823 229.492 16.4823C231.006 16.4823 232.672 17.2354 232.672 19.1112V23.8454C232.672 24.9715 232.672 25.2351 233.655 25.3481C234.225 25.4234 234.335 25.4987 234.335 25.687C234.335 25.9505 234.107 25.9505 233.956 25.9505C233.614 25.9505 231.913 25.8752 231.534 25.8752C231.193 25.8752 229.492 25.9505 229.113 25.9505C228.961 25.9505 228.733 25.9505 228.733 25.687C228.733 25.4987 228.885 25.4234 229.413 25.3481C230.396 25.2351 230.396 25.0092 230.396 23.8454V20.2032L230.399 20.1998Z" fill="#FFD100"/>
<path d="M238.384 24.7833C238.195 25.0845 238.195 25.1222 238.195 25.1975C238.195 25.3481 238.347 25.3481 238.574 25.3481C242.7 25.3481 242.889 24.9715 243.458 23.5441C243.496 23.4312 243.61 23.2429 243.8 23.2429C244.066 23.2429 244.066 23.4688 244.066 23.6571L243.99 25.6117C243.952 25.8752 243.914 25.9882 243.534 25.9882C242.665 25.9882 241.227 25.9129 240.354 25.9129C238.274 25.9129 236.76 25.9882 235.773 25.9882C235.47 25.9882 235.166 25.9505 235.166 25.6117C235.166 25.4234 235.28 25.2351 235.356 25.1975L240.958 18.0227C241.109 17.8721 241.185 17.7215 241.185 17.6462C241.185 17.5332 241.034 17.4956 240.278 17.4956C237.857 17.4956 236.984 17.4956 236.039 18.6594C235.811 18.9606 235.697 18.9983 235.546 18.9983C235.356 18.9983 235.318 18.8853 235.318 18.7724C235.318 18.6594 235.356 18.5464 235.356 18.4711L236.225 16.2564C236.301 16.0305 236.377 15.9552 236.567 15.9552C236.832 15.9552 236.832 16.1058 236.832 16.52C236.832 16.8589 237.174 16.8965 237.626 16.8965H243.531C243.948 16.8965 244.1 16.9342 244.1 17.1224C244.1 17.2731 243.986 17.4613 243.91 17.5366L238.384 24.7867V24.7833Z" fill="#FFD100"/>
<path d="M250.761 18.7005C250.761 17.9851 250.685 17.0095 249.588 17.0095C248.263 17.0095 247.732 18.2486 247.546 18.7381C247.167 19.6384 245.842 19.7514 245.804 19.7514C245.538 19.7514 245.311 19.6008 245.311 19.3372C245.311 18.6594 246.749 16.5576 250.268 16.5576C252.427 16.5576 252.955 17.1978 252.955 18.0604V23.6571C252.955 24.2972 253.03 24.7833 253.675 24.7833C253.941 24.7833 254.169 24.708 254.355 24.595C254.532 24.4695 254.659 24.4068 254.734 24.4068C254.886 24.4068 254.924 24.5197 254.924 24.595C254.924 25.0845 253.524 26.0601 252.503 26.0601C251.596 26.0601 251.178 25.4576 250.875 24.9716C250.685 24.595 250.609 24.595 250.571 24.595C250.533 24.595 250.419 24.6703 250.419 24.6703C249.436 25.3481 248.188 26.0978 247.163 26.0978C245.459 26.0978 245.345 24.708 245.345 24.3691C245.345 22.8664 246.556 22.0038 250.116 20.7646C250.685 20.5763 250.685 20.3881 250.685 20.0115V18.6971H250.761V18.7005ZM250.761 21.4424C250.761 21.2541 250.609 21.2165 250.495 21.2165C250.154 21.2165 249.588 21.48 249.209 21.6306C247.77 22.2331 247.77 23.0204 247.77 23.4346C247.77 24.4102 248.301 24.7867 248.791 24.7867C249.812 24.7867 250.723 24.0336 250.723 22.6439V21.4424H250.761Z" fill="#FFD100"/>
<path d="M95.5021 34.4363H51.1814V34.9635H95.5021V34.4363Z" fill="#002169"/>
<path d="M255 34.4363H210.679V34.9635H255V34.4363Z" fill="#002169"/>
<path d="M54.2858 4.16269C54.2858 4.7275 54.6273 4.83704 54.817 4.83704C55.1206 4.83704 55.3103 4.57346 55.3103 4.34754C55.3103 4.08396 55.0826 4.00865 54.3272 3.67319C53.9857 3.52258 53.1165 3.18369 53.1165 2.24577C53.1165 1.30785 54.0237 0.743042 54.8584 0.743042C55.5414 0.743042 56.5245 1.08193 56.5245 2.28343H55.2758C55.2379 2.13281 55.1999 1.79393 54.8205 1.79393C54.5928 1.79393 54.3652 1.94454 54.3652 2.17046C54.3652 2.39639 54.517 2.47169 55.3862 2.84481C56.3313 3.259 56.559 3.66977 56.559 4.27223C56.559 5.05954 56.1416 5.85027 54.817 5.85027C53.4925 5.85027 52.9992 5.10061 53.0372 4.12162H54.2858V4.15927V4.16269Z" fill="#002169"/>
<path d="M57.7282 1.94456H56.7451V0.856018H59.9634V1.94456H58.9803V5.77497H57.6937V1.94456H57.7316H57.7282Z" fill="#002169"/>
<path d="M61.7399 0.856008V3.82381C61.7399 3.97443 61.7399 4.23801 61.8158 4.42627C61.8917 4.61454 62.0814 4.76516 62.3815 4.76516C62.6816 4.76516 62.8747 4.61454 62.9506 4.42627C63.0265 4.23801 63.0265 4.01208 63.0265 3.78616V0.818354H64.3131V3.78616C64.3131 4.61112 64.1234 4.98766 63.8199 5.28889C63.4784 5.62777 63.0645 5.81604 62.4194 5.81604C62.04 5.81604 61.3984 5.74073 60.981 5.28889C60.5637 4.83704 60.4878 4.49816 60.4878 3.74851V0.780701H61.7365V0.856008H61.7399Z" fill="#002169"/>
<path d="M65.1858 0.856018H66.8518C67.421 0.856018 68.404 0.856018 69.0456 1.79394C69.3871 2.24579 69.5009 2.76952 69.5009 3.33432C69.5009 4.68644 68.8214 5.81263 66.9277 5.81263H65.1858V0.856018ZM66.9657 4.68644C67.9108 4.68644 68.1764 4.04975 68.1764 3.33432C68.1764 3.07075 68.1005 2.69763 67.9487 2.43406C67.797 2.20813 67.5313 1.98221 66.9657 1.98221H66.3965V4.68644H66.9657Z" fill="#002169"/>
<path d="M70.1426 0.856018H71.4292V5.7784H70.1426V0.856018Z" fill="#002169"/>
<path d="M72.1121 3.37196C72.1121 1.75627 73.3607 0.743042 74.7232 0.743042C76.2754 0.743042 77.3344 1.94454 77.3344 3.29665C77.3344 4.64877 76.2375 5.85027 74.6853 5.85027C73.171 5.88792 72.1121 4.64877 72.1121 3.37196ZM73.3987 3.29665C73.3987 4.04631 73.9299 4.76173 74.7612 4.76173C75.6683 4.76173 76.0857 3.93677 76.0857 3.29665C76.0857 2.65654 75.6304 1.83158 74.7232 1.83158C73.854 1.86923 73.3987 2.62231 73.3987 3.29665Z" fill="#002169"/>
</g>
<defs>
<clipPath id="clip0_41_2484">
<rect width="255" height="37" fill="white" transform="translate(0 0.5)"/>
</clipPath>
</defs>
</svg>
